<svg width="37.041748" height="29.166779" viewBox="0 0 37.0417 29.1668" fill="none" xmlns="http://www.w3.org/2000/svg" xmlns:xlink="http://www.w3.org/1999/xlink">
	<desc>
			Created with Pixso.
	</desc>
	<defs>
		<filter id="filter_5_220_dd" x="0.000000" y="0.000000" width="37.041748" height="29.166779" filterUnits="userSpaceOnUse" color-interpolation-filters="sRGB">
			<feFlood flood-opacity="0" result="BackgroundImageFix"/>
			<feColorMatrix in="SourceAlpha" type="matrix" values="0 0 0 0 0 0 0 0 0 0 0 0 0 0 0 0 0 0 127 0" result="hardAlpha"/>
			<feOffset dx="0" dy="4"/>
			<feGaussianBlur stdDeviation="1.33333"/>
			<feComposite in2="hardAlpha" operator="out" k2="-1" k3="1"/>
			<feColorMatrix type="matrix" values="0 0 0 0 0 0 0 0 0 0 0 0 0 0 0 0 0 0 0.25 0"/>
			<feBlend mode="normal" in2="BackgroundImageFix" result="effect_dropShadow_1"/>
			<feColorMatrix in="SourceAlpha" type="matrix" values="0 0 0 0 0 0 0 0 0 0 0 0 0 0 0 0 0 0 127 0" result="hardAlpha"/>
			<feOffset dx="0" dy="4"/>
			<feGaussianBlur stdDeviation="1.33333"/>
			<feComposite in2="hardAlpha" operator="out" k2="-1" k3="1"/>
			<feColorMatrix type="matrix" values="0 0 0 0 0 0 0 0 0 0 0 0 0 0 0 0 0 0 0.25 0"/>
			<feBlend mode="normal" in2="effect_dropShadow_1" result="effect_dropShadow_2"/>
			<feBlend mode="normal" in="SourceGraphic" in2="effect_dropShadow_2" result="shape"/>
		</filter>
	</defs>
	<g filter="url(#filter_5_220_dd)">
		<path id="Vector" d="M14.9609 20.8951L14.9526 20.8916L14.927 20.8776C14.7769 20.795 14.6279 20.7102 14.4802 20.6233C12.7043 19.568 11.0447 18.3283 9.52881 16.9249C6.84424 14.4201 4 10.7031 4 6.12509C4 2.70908 6.87476 9.15527e-05 10.3442 9.15527e-05C11.3088 -0.00463867 12.262 0.20816 13.1331 0.62262C14.0039 1.03711 14.7703 1.64261 15.375 2.39407C15.9797 1.64246 16.7463 1.03687 17.6174 0.622375C18.4888 0.207886 19.4421 -0.00482178 20.4067 9.15527e-05C23.8752 9.15527e-05 26.75 2.70908 26.75 6.12509C26.75 10.7043 23.9058 14.4213 21.2212 16.9237C19.7053 18.3272 18.0457 19.5669 16.2698 20.6221C16.1221 20.7094 15.9731 20.7946 15.823 20.8776L15.7974 20.8916L15.7891 20.8962L15.7856 20.8974C15.6592 20.9644 15.5181 20.9995 15.375 20.9995C15.2319 20.9995 15.0908 20.9644 14.9644 20.8974L14.9609 20.8951Z" fill="#FFFFFF" fill-opacity="1.000000" fill-rule="nonzero"/>
		<path id="offline_bolt" d="M25.2683 18.9668L28.4583 12.7335L26.2583 12.7335L26.2583 8.70013L22.9583 14.9334L25.2683 14.9334L25.2683 18.9668ZM25.7083 21.1668C24.6938 21.1668 23.7405 20.9743 22.8484 20.5893C21.9561 20.2043 21.1799 19.6818 20.52 19.0218C19.8601 18.3618 19.3374 17.5857 18.9524 16.6935C18.5674 15.8012 18.375 14.8479 18.375 13.8335C18.375 12.819 18.5674 11.8657 18.9524 10.9734C19.3374 10.0812 19.8601 9.30511 20.52 8.64511C21.1799 7.98511 21.9561 7.46262 22.8484 7.07764C23.7405 6.69263 24.6938 6.50012 25.7083 6.50012C26.7227 6.50012 27.676 6.69263 28.5684 7.07764C29.4604 7.46262 30.2366 7.98511 30.8967 8.64511C31.5566 9.30511 32.0791 10.0812 32.4641 10.9734C32.8491 11.8657 33.0417 12.819 33.0417 13.8335C33.0417 14.8479 32.8491 15.8012 32.4641 16.6935C32.0791 17.5857 31.5566 18.3618 30.8967 19.0218C30.2366 19.6818 29.4604 20.2043 28.5684 20.5893C27.676 20.9743 26.7227 21.1668 25.7083 21.1668Z" fill="#894189" fill-opacity="1.000000" fill-rule="nonzero"/>
		<path id="offline_bolt" d="M25.6416 18.5001L28.5417 12.8334L26.5417 12.8334L26.5417 9.16675L23.5417 14.8334L25.6416 14.8334L25.6416 18.5001ZM26.0417 20.5001C25.1194 20.5001 24.2527 20.3251 23.4417 19.9751C22.6306 19.6251 21.925 19.1501 21.325 18.5501C20.7251 17.9501 20.25 17.2445 19.8999 16.4334C19.55 15.6223 19.375 14.7556 19.375 13.8334C19.375 12.9112 19.55 12.0445 19.8999 11.2334C20.25 10.4223 20.7251 9.71674 21.325 9.11676C21.925 8.51675 22.6306 8.04175 23.4417 7.69174C24.2527 7.34174 25.1194 7.16675 26.0417 7.16675C26.9639 7.16675 27.8306 7.34174 28.6416 7.69174C29.4529 8.04175 30.1584 8.51675 30.7583 9.11676C31.3584 9.71674 31.8333 10.4223 32.1833 11.2334C32.5334 12.0445 32.7083 12.9112 32.7083 13.8334C32.7083 14.7556 32.5334 15.6223 32.1833 16.4334C31.8333 17.2445 31.3584 17.9501 30.7583 18.5501C30.1584 19.1501 29.4529 19.6251 28.6416 19.9751C27.8306 20.3251 26.9639 20.5001 26.0417 20.5001Z" fill="#FFFFFF" fill-opacity="1.000000" fill-rule="nonzero"/>
	</g>
</svg>
